<svg xmlns="http://www.w3.org/2000/svg" xmlns:xlink="http://www.w3.org/1999/xlink" fill="none" version="1.1" width="400" height="300" viewBox="0 0 400 300"><clipPath id="master_svg0_46_49"><rect x="0" y="0" width="400" height="300" rx="0"/></clipPath><g clip-path="url(#master_svg0_46_49)" style="mix-blend-mode:passthrough"><g><g style="mix-blend-mode:passthrough"><path d="M356.964,136.10899999999998C356.964,177.819,356.964,202.249,340.875,220.124C324.786,238,303.333,238,203.819,238C104.3039,238,42.33079,237.382,42.33079,177.819C42.33079,162.928,41.58651,146.37,42.330793,122.4039C43.07508,98.4383,46.94736,68.5346,60.2077,52.0929C90.0025,15.1498,161.529,28.2587,203.819,28.2587C246.109,28.2587,303.627,24.82981,331.341,44.3468C359.054,63.8638,356.964,106.3267,356.964,136.10899999999998Z" fill="#FF7728" fill-opacity="1"/></g><g style="mix-blend-mode:passthrough"><path d="M198,79Q200.2585,79,202.51420000000002,78.9344Q204.76999999999998,78.8688,207.018,78.7377Q209.265,78.6067,211.499,78.4105Q213.733,78.2143,215.94799999999998,77.9535Q218.163,77.6927,220.35399999999998,77.3678Q222.54500000000002,77.043,224.70600000000002,76.6549Q226.86700000000002,76.2668,228.994,75.8164Q231.12,75.3659,233.207,74.8543Q235.293,74.3427,237.335,73.771Q239.377,73.1994,241.368,72.5692Q243.36,71.9389,245.297,71.2516Q247.235,70.5642,249.112,69.8215Q250.99,69.0787,252.804,68.2822Q254.618,67.4858,256.36400000000003,66.6377Q258.11,65.7895,259.783,64.8916Q261.457,63.9938,263.054,63.0484Q264.651,62.103,266.16700000000003,61.1124Q267.68399999999997,60.1218,269.11699999999996,59.0883Q270.55,58.0548,271.895,56.9809Q273.24,55.9071,274.495,54.7954Q275.75,53.6838,276.911,52.537Q278.072,51.3902,279.137,50.2111Q280.201,49.032,281.16700000000003,47.8234Q282.13300000000004,46.6148,282.997,45.3796Q283.861,44.1444,284.622,42.8856Q285.38300000000004,41.6268,286.038,40.3474Q286.69399999999996,39.068,287.243,37.7711Q287.79200000000003,36.4742,288.23199999999997,35.1629Q288.673,33.8516,289.004,32.5291Q289.336,31.2066,289.557,29.8761Q289.778,28.5456,289.889,27.2102Q290,25.8748,290,24.5379Q290,22.5326,289.751,20.5327C264.471,7.61515,233.392,0,199.79219999999998,0C170.0937,0,134.8095,7.56059,106.0690989,22.4275Q106,23.4823,106,24.5379Q106,25.8748,106.110818,27.2102Q106.221636,28.5456,106.443005,29.8761Q106.664374,31.2066,106.995761,32.5291Q107.32715,33.8516,107.76775,35.1629Q108.20836,36.4742,108.75712,37.7711Q109.30589,39.068,109.96149,40.3474Q110.61709,41.6268,111.37794,42.8856Q112.1388,44.1444,113.00308,45.3796Q113.86736,46.6148,114.83297999999999,47.8234Q115.79861,49.032,116.8632,50.2111Q117.9279,51.3902,119.089,52.537Q120.2501,53.6838,121.5048,54.7954Q122.7595,55.9071,124.1049,56.9809Q125.4503,58.0548,126.883,59.0883Q128.3158,60.1218,129.8325,61.1124Q131.3492,62.103,132.9462,63.0484Q134.5432,63.9938,136.2166,64.8916Q137.89,65.7895,139.63580000000002,66.6377Q141.3816,67.4858,143.1957,68.2822Q145.0097,69.0787,146.8875,69.8215Q148.7654,70.5642,150.7025,71.2516Q152.6397,71.9389,154.63150000000002,72.5692Q156.6233,73.1994,158.6649,73.771Q160.7066,74.3427,162.7931,74.8543Q164.8797,75.3659,167.0061,75.8164Q169.1326,76.2668,171.2938,76.6549Q173.45499999999998,77.043,175.6458,77.3678Q177.8366,77.6927,180.05169999999998,77.9535Q182.2668,78.2143,184.5008,78.4105Q186.7348,78.6067,188.98239999999998,78.7377Q191.23000000000002,78.8688,193.48579999999998,78.9344Q195.7415,79,198,79Z" fill-rule="evenodd" fill="#FFFFFF" fill-opacity="1"/></g><g style="mix-blend-mode:passthrough"><g><g style="mix-blend-mode:passthrough"><ellipse cx="145.8333330154419" cy="148" rx="14.833333015441895" ry="16" fill="#3D3B4F" fill-opacity="1"/></g><g style="mix-blend-mode:passthrough"><ellipse cx="199.50000095367432" cy="148" rx="14.833333015441895" ry="16" fill="#3D3B4F" fill-opacity="1"/></g><g style="mix-blend-mode:passthrough"><ellipse cx="253.1666612625122" cy="148" rx="14.833333015441895" ry="16" fill="#3D3B4F" fill-opacity="1"/></g></g></g><g><path d="M198.501,14C198.501,14,211.0586,47.9396,211.0586,47.9396C211.0586,47.9396,245,60.4991,245,60.4991C245,60.4991,211.0586,73.05850000000001,211.0586,73.05850000000001C211.0586,73.05850000000001,198.501,107,198.501,107C198.501,107,185.9414,73.05850000000001,185.9414,73.05850000000001C185.9414,73.05850000000001,152,60.4991,152,60.4991C152,60.4991,185.9414,47.9396,185.9414,47.9396C185.9414,47.9396,198.501,14,198.501,14C198.501,14,198.501,14,198.501,14Z" fill="#FFFFFF" fill-opacity="1"/></g><g style="mix-blend-mode:passthrough"><path d="M41.99999369578,168.999999375137L108,234C65.9871,228.4822,42.0655921,214.2638,42.0655921,177.63544C42.0655921,174.82941,42.0386153,171.96387,41.99999369578,168.999999375137Z" fill-rule="evenodd" fill="#FFFFFF" fill-opacity="1"/></g><g style="mix-blend-mode:passthrough"><path d="M356.99998398437504,160.9999474989C356.403183984375,188.0461,353.650483984375,205.969,340.953783984375,219.8932C330.181483984375,231.7071,317.023083984375,235.6707,279.986087753975,237.0005L356.99998398437504,160.9999474989Z" fill-rule="evenodd" fill="#FFFFFF" fill-opacity="1"/></g></g></g></svg>