<svg xmlns="http://www.w3.org/2000/svg" xmlns:xlink="http://www.w3.org/1999/xlink" fill="none" version="1.1" width="30" height="29.987194061279297" viewBox="0 0 30 29.987194061279297"><defs><linearGradient x1="0.5" y1="0" x2="0.5" y2="1" id="master_svg0__54"><stop offset="0%" stop-color="#FFB101" stop-opacity="1"/><stop offset="100%" stop-color="#FF7728" stop-opacity="1"/></linearGradient><linearGradient x1="0.5" y1="0" x2="0.5" y2="1" id="master_svg1__52"><stop offset="0%" stop-color="#FFB101" stop-opacity="1"/><stop offset="100%" stop-color="#FF7728" stop-opacity="1"/></linearGradient><linearGradient x1="0.5" y1="0" x2="0.5" y2="1" id="master_svg2__54"><stop offset="0%" stop-color="#FFB101" stop-opacity="1"/><stop offset="100%" stop-color="#FF7728" stop-opacity="1"/></linearGradient><linearGradient x1="0.5" y1="0" x2="0.5" y2="1" id="master_svg3__56"><stop offset="0%" stop-color="#FFB101" stop-opacity="1"/><stop offset="100%" stop-color="#FF7728" stop-opacity="1"/></linearGradient><linearGradient x1="0.5" y1="0" x2="0.5" y2="1" id="master_svg4__58"><stop offset="0%" stop-color="#FFB101" stop-opacity="1"/><stop offset="100%" stop-color="#FF7728" stop-opacity="1"/></linearGradient><linearGradient x1="0.5" y1="0" x2="0.5" y2="1" id="master_svg5__60"><stop offset="0%" stop-color="#FFB101" stop-opacity="1"/><stop offset="100%" stop-color="#FF7728" stop-opacity="1"/></linearGradient></defs><g><path d="M10.7143,19.277508009975318C10.7143,19.277508009975318,10.7143,19.277508009975318,10.7143,19.277508009975318C10.7143,19.277508009975318,0,15.707608009975317,0,15.707608009975317C0,15.707608009975317,4.61398e-7,27.845208009975316,4.61398e-7,27.845208009975316C-0.0000419872,29.028208009975316,0.95934,29.98720800997532,2.14287,29.98720800997532C2.14287,29.98720800997532,14.2857,29.98720800997532,14.2857,29.98720800997532C14.2857,29.98720800997532,10.7143,19.277508009975318,10.7143,19.277508009975318ZM30,27.84530800997532C30,29.02830800997532,29.0406,29.98730800997532,27.8571,29.98720800997532C27.8571,29.98720800997532,15.7143,29.98720800997532,15.7143,29.98720800997532C15.7143,29.98720800997532,19.2857,19.277508009975318,19.2857,19.277508009975318C19.2857,19.277508009975318,30,15.707608009975317,30,15.707608009975317C30,15.707608009975317,30,27.84530800997532,30,27.84530800997532C30,27.84530800997532,30,27.84530800997532,30,27.84530800997532ZM9.02107,20.970108009975316C9.02107,20.970108009975316,11.3141,27.846208009975317,11.3141,27.846208009975317C11.3141,27.846208009975317,2.14289,27.846208009975317,2.14289,27.846208009975317C2.14261,27.846208009975317,2.14233,27.846108009975318,2.14218,27.845908009975318C2.14201,27.84570800997532,2.14191,27.84550800997532,2.14189,27.84530800997532C2.14189,27.84530800997532,2.14189,18.67800800997532,2.14189,18.67800800997532C2.14189,18.67800800997532,9.02107,20.970108009975316,9.02107,20.970108009975316C9.02107,20.970108009975316,9.02107,20.970108009975316,9.02107,20.970108009975316ZM27.8582,27.84530800997532C27.8582,27.84550800997532,27.8581,27.84570800997532,27.8579,27.845908009975318C27.8578,27.846208009975317,27.8575,27.846208009975317,27.8572,27.846208009975317C27.8572,27.846208009975317,18.6859,27.846208009975317,18.6859,27.846208009975317C18.6859,27.846208009975317,20.2683,23.10140800997532,20.979,20.970108009975316C20.979,20.970108009975316,27.8582,18.67800800997532,27.8582,18.67800800997532C27.8582,18.67800800997532,27.8582,27.84530800997532,27.8582,27.84530800997532C27.8582,27.84530800997532,27.8582,27.84530800997532,27.8582,27.84530800997532ZM10.7143,10.709708009975317C10.7143,10.709708009975317,0,14.279608009975318,0,14.279608009975318C0,14.279608009975318,0,2.141918009975318,0,2.141918009975318C4.61398e-7,0.9589370099753177,0.959416,-0.00003257562468230901,2.14289,0.000008009975317690987C2.14289,0.000008009975317690987,14.2857,0.000008009975317690987,14.2857,0.000008009975317690987C14.2857,0.000008009975317690987,10.7143,10.709708009975317,10.7143,10.709708009975317C10.7143,10.709708009975317,10.7143,10.709708009975317,10.7143,10.709708009975317ZM30,14.279608009975318C30,14.279608009975318,19.2857,10.709708009975317,19.2857,10.709708009975317C19.2857,10.709708009975317,15.7143,0.000008009975317690987,15.7143,0.000008009975317690987C15.7143,0.000008009975317690987,27.8572,0.000008009975317690987,27.8572,0.000008009975317690987C29.0407,0.000008009975317690987,30.0001,0.9590430099753177,30,2.1420080099753176C30,2.1420080099753176,30,14.279608009975318,30,14.279608009975318C30,14.279608009975318,30,14.279608009975318,30,14.279608009975318ZM27.8582,11.309208009975318C27.8582,11.309208009975318,20.979,9.017098009975317,20.979,9.017098009975317C20.979,9.017098009975317,18.6859,2.1408580099753176,18.6859,2.1408580099753176C18.6859,2.1408580099753176,27.8572,2.1408580099753176,27.8572,2.1408580099753176C27.8575,2.1408580099753176,27.8577,2.140968009975318,27.8579,2.141158009975318C27.8581,2.1414680099753176,27.8582,2.1416180099753177,27.8582,2.141918009975318C27.8582,2.141918009975318,27.8582,11.309208009975318,27.8582,11.309208009975318C27.8582,11.309208009975318,27.8582,11.309208009975318,27.8582,11.309208009975318ZM9.02107,9.017098009975317C9.02107,9.017098009975317,2.14189,11.309208009975318,2.14189,11.309208009975318C2.14189,11.309208009975318,2.14189,2.141918009975318,2.14189,2.141918009975318C2.1419,2.141638009975318,2.142,2.141378009975318,2.14218,2.141158009975318C2.14237,2.1409780099753175,2.14262,2.1408780099753177,2.14289,2.1408580099753176C2.14289,2.1408580099753176,11.3141,2.1408580099753176,11.3141,2.1408580099753176C11.3141,2.1408580099753176,9.02107,9.017098009975317,9.02107,9.017098009975317C9.02107,9.017098009975317,9.02107,9.017098009975317,9.02107,9.017098009975317Z" fill-rule="evenodd" fill="url(#master_svg0__54)" fill-opacity="1"/><g><path d="M15.000214484252929,8.567934036254883C15.000214484252929,8.567934036254883,16.73631448425293,13.258094036254882,16.73631448425293,13.258094036254882C16.73631448425293,13.258094036254882,21.428724484252932,14.993704036254883,21.428724484252932,14.993704036254883C21.428724484252932,14.993704036254883,16.73630448425293,16.729314036254884,16.73630448425293,16.729314036254884C16.73630448425293,16.729314036254884,15.00020448425293,21.419734036254884,15.00020448425293,21.419734036254884C15.00020448425293,21.419734036254884,13.263834484252929,16.729314036254884,13.263834484252929,16.729314036254884C13.263834484252929,16.729314036254884,8.57142448425293,14.993704036254883,8.57142448425293,14.993704036254883C8.57142448425293,14.993704036254883,13.26384448425293,13.258094036254882,13.26384448425293,13.258094036254882C13.26384448425293,13.258094036254882,15.000214484252929,8.567934036254883,15.000214484252929,8.567934036254883C15.000214484252929,8.567934036254883,15.000214484252929,8.567934036254883,15.000214484252929,8.567934036254883Z" fill="url(#master_svg1__52)" fill-opacity="1"/></g><g><path d="M27.857262557739258,27.309785842895508C27.857262557739258,27.309785842895508,27.857262557739258,27.845224842895508,27.857262557739258,27.845224842895508C27.857262557739258,27.845224842895508,27.321443557739258,27.845224842895508,27.321443557739258,27.845224842895508C27.617260557739257,27.845106842895508,27.857061557739257,27.605473842895506,27.857262557739258,27.309785842895508C27.857262557739258,27.309785842895508,27.857262557739258,27.309785842895508,27.857262557739258,27.309785842895508Z" fill="url(#master_svg2__54)" fill-opacity="1"/></g><g><path d="M27.857262557739258,2.141923427581787C27.857262557739258,2.141923427581787,27.321443557739258,2.141923427581787,27.321443557739258,2.141923427581787C27.617260557739257,2.142041494581787,27.857061557739257,2.381673427581787,27.857262557739258,2.6773624275817873C27.857262557739258,2.6773624275817873,27.857262557739258,2.141923427581787,27.857262557739258,2.141923427581787C27.857262557739258,2.141923427581787,27.857262557739258,2.141923427581787,27.857262557739258,2.141923427581787Z" fill="url(#master_svg3__56)" fill-opacity="1"/></g><g transform="matrix(-1,0,0,-1,5.357232570648193,5.354716777801514)"><path d="M3.2144352853240967,3.212797388900757C3.2144352853240967,3.212797388900757,2.6786162853240967,3.212797388900757,2.6786162853240967,3.212797388900757C2.9744332853240967,3.212679388900757,3.2142342853240966,2.973046388900757,3.2144352853240967,2.677358388900757C3.2144352853240967,2.677358388900757,3.2144352853240967,3.212797388900757,3.2144352853240967,3.212797388900757C3.2144352853240967,3.212797388900757,3.2144352853240967,3.212797388900757,3.2144352853240967,3.212797388900757Z" fill="url(#master_svg4__58)" fill-opacity="1"/></g><g transform="matrix(-1,0,0,-1,5.357232570648193,55.6904411315918)"><path d="M3.2144352853240967,27.8452205657959C3.2144352853240967,27.8452205657959,2.6786162853240967,27.8452205657959,2.6786162853240967,27.8452205657959C2.9744332853240967,27.845338632795897,3.2142342853240966,28.0849705657959,3.2144352853240967,28.3806595657959C3.2144352853240967,28.3806595657959,3.2144352853240967,27.8452205657959,3.2144352853240967,27.8452205657959C3.2144352853240967,27.8452205657959,3.2144352853240967,27.8452205657959,3.2144352853240967,27.8452205657959Z" fill="url(#master_svg5__60)" fill-opacity="1"/></g></g></svg>