<svg width="191" height="49" viewBox="0 0 191 49" fill="none" xmlns="http://www.w3.org/2000/svg">
<line x1="7.34827" y1="48.5" x2="228.348" y2="48.5" stroke="white"/>
<line x1="7.34827" y1="37.5" x2="130.348" y2="37.5" stroke="white"/>
<line x1="61.3483" y1="24.5" x2="130.348" y2="24.5" stroke="white"/>
<line x1="184.348" y1="0.5" x2="41.3483" y2="0.5" stroke="white"/>
<line x1="184.348" y1="11.5" x2="61.3483" y2="11.5" stroke="white"/>
<line x1="130.348" y1="24.5" x2="61.3483" y2="24.5" stroke="white"/>
<path d="M7.34827 48.5C-1.1519 48.5 -1.08026 37.444 7.34825 37.4999M184.348 11.4999C192.334 11.4999 192.334 0.499859 184.348 0.499859M73.3474 24.4998C64.5714 24.5139 64.0714 11.5479 73.3474 11.4998M121.848 37.4998C129.834 37.4998 129.834 24.4998 121.848 24.4998M177.362 11.4999C185.348 11.4999 185.348 0.499859 177.362 0.499859M61.348 24.4999C52.572 24.514 52.072 11.548 61.348 11.4999M15.8483 48.5C7.34811 48.5 7.41975 37.444 15.8483 37.4999M130.348 37.4998C138.334 37.4998 138.334 24.4998 130.348 24.4998" stroke="white"/>
</svg>
