<svg xmlns="http://www.w3.org/2000/svg" width="4960.04" height="1984.256" viewBox="0 0 4960.04 1984.256" > <g id="组_7" data-name="组 7" transform="translate(-142.326 -3826.766)" > <g id="组_2" data-name="组 2" transform="translate(-509.949 5811.02)" > <path id="路径_2" data-name="路径 2" d="M1217.58-568.2V-1275.56h994.357V-568.2H1785.784v142.051h565.3V-284.1h-565.3v142.051h565.3V0H1075.529V-142.051h568.2V-284.1h-568.2V-426.153h568.2V-568.2ZM794.326,0c-37.687,0-75.374-14.495-101.465-40.586s-40.586-63.778-40.586-101.465V-1843.764a138.052,138.052,0,0,1,40.586-98.566c26.091-26.091,63.778-40.586,101.465-40.586h281.2V0ZM2493.14-1559.662v142.051l-1417.611-5.8v-136.253h426.153l-142.051-142.051h284.1v142.051h142.051v-142.051h284.1l-142.051,142.051ZM794.326-211.627a67.894,67.894,0,0,0,20.293,49.283c11.6,14.5,31.889,20.293,49.283,20.293h72.475V-1843.764H863.9c-37.687,0-69.576,31.889-69.576,72.475v495.729H936.377v142.051H794.326ZM2211.937-1843.764v142.051H1217.58v-142.051h426.153v-139.152h142.051v139.152ZM1785.784-707.356h284.1V-849.407h-284.1Zm-426.153,0h284.1V-849.407h-284.1Zm0-426.153v142.051h284.1v-142.051Zm710.255,0h-284.1v142.051h284.1Z" fill="#fff" /> </g> <g id="组_3" data-name="组 3" transform="translate(996.781 5822.35)" > <path id="路径_3" data-name="路径 3" d="M846.508-1003.054v-991.458H2406.17v991.458ZM2687.373-153.647V-11.6H562.406V-153.647h991.458V-295.7H562.406V-437.749h991.458V-571.1l-991.458-5.8V-718.952h284.1L988.559-861H1130.61v142.051h423.254v-284.1h142.051v284.1h991.458V-576.9H1695.915v139.152h991.458V-295.7H1695.915v142.051ZM988.559-1145.1h1275.56v-284.1h-284.1l-142.051-142.051h426.153v-281.2H988.559v281.2h281.2l142.051,142.051H988.559Z" fill="#fff" /> </g> <g id="组_4" data-name="组 4" transform="translate(-3093.42 1877.31)" > <path id="路径_4" data-name="路径 4" d="M5715.478,2187.929l69.584,188.032,188.013,69.566-188.013,69.584-69.584,188.013-69.565-188.013-188.032-69.584,188.032-69.566Z" fill="#fff" fill-rule="evenodd" /> </g> <g id="组_5" data-name="组 5" transform="translate(2692.91 2254.83)" > <path id="路径_5" data-name="路径 5" d="M992.126,3556.192V1855.409H850.394V1997.14H566.929v141.731H850.394V3556.192Z" fill="#fff" fill-rule="evenodd" /> </g> <g id="组_6" data-name="组 6" transform="translate(4110.24 2254.83)" > <path id="路径_6" data-name="路径 6" d="M850.394,3556.192a141.727,141.727,0,0,0,141.732-141.731V1713.678a141.736,141.736,0,0,0-141.732-141.742H-283.465v141.742H779.528a70.855,70.855,0,0,1,70.866,70.865V3343.6a70.863,70.863,0,0,1-70.866,70.865H425.2v141.731Z" fill="#fff" fill-rule="evenodd" /> </g> <rect id="矩形_29" data-name="矩形 29" width="141.732" height="141.732" transform="translate(3543.31 3826.77)" fill="#fff" /> <path id="路径_7" data-name="路径 7" d="M3968.5,4110.24l-141.73,141.73H3543.31V4393.7h992.12l-708.66,425.2h283.47l708.66-425.2V4251.97H4110.24V4110.24Z" fill="#fff" fill-rule="evenodd" /> <path id="路径_8" data-name="路径 8" d="M4251.97,4464.57H3968.5l566.93,354.33H4818.9Z" fill="#fff" fill-rule="evenodd" /> <path id="路径_9" data-name="路径 9" d="M4818.9,4960.63H3826.77v566.93H4818.9Zm-141.74,141.73H3968.5v283.47h708.66Z" fill="#fff" fill-rule="evenodd" /> </g> </svg>