<svg xmlns="http://www.w3.org/2000/svg" xmlns:xlink="http://www.w3.org/1999/xlink" fill="none" version="1.1" width="30.000001907348633" height="29.98646354675293" viewBox="0 0 30.000001907348633 29.98646354675293"><g><path d="M10.7143,19.276967960880896C10.7143,19.276967960880896,14.2857,29.986467960880894,14.2857,29.986467960880894C14.2857,29.986467960880894,2.14287,29.986467960880894,2.14287,29.986467960880894C0.95934,29.986467960880894,-0.0000419872,29.027467960880895,4.61398e-7,27.844467960880895C4.61398e-7,27.844467960880895,0,15.707167960880895,0,15.707167960880895C0,15.707167960880895,10.7143,19.276967960880896,10.7143,19.276967960880896C10.7143,19.276967960880896,10.7143,19.276967960880896,10.7143,19.276967960880896ZM30,27.844567960880894C30,29.027567960880894,29.0406,29.986567960880894,27.8571,29.986467960880894C27.8571,29.986467960880894,15.7143,29.986467960880894,15.7143,29.986467960880894C15.7143,29.986467960880894,19.2857,19.276967960880896,19.2857,19.276967960880896C19.2857,19.276967960880896,30,15.707167960880895,30,15.707167960880895C30,15.707167960880895,30,27.844567960880894,30,27.844567960880894C30,27.844567960880894,30,27.844567960880894,30,27.844567960880894ZM9.02107,20.969567960880894C9.02107,20.969567960880894,9.02107,20.969567960880894,9.02107,20.969567960880894C9.02107,20.969567960880894,2.14189,18.677467960880893,2.14189,18.677467960880893C2.14189,18.677467960880893,2.14189,27.844567960880894,2.14189,27.844567960880894C2.14191,27.844767960880894,2.14201,27.844967960880894,2.14218,27.845167960880893C2.14233,27.845367960880896,2.14261,27.845567960880896,2.14289,27.845467960880896C2.14289,27.845467960880896,11.3141,27.845467960880896,11.3141,27.845467960880896C11.3141,27.845467960880896,9.02107,20.969567960880894,9.02107,20.969567960880894ZM27.8582,27.844567960880894C27.8582,27.844767960880894,27.8581,27.844967960880894,27.8579,27.845167960880893C27.8578,27.845467960880896,27.8575,27.845467960880896,27.8572,27.845467960880896C27.8572,27.845467960880896,18.6859,27.845467960880896,18.6859,27.845467960880896C18.6859,27.845467960880896,20.2683,23.100867960880894,20.979,20.969567960880894C20.979,20.969567960880894,27.8582,18.677467960880893,27.8582,18.677467960880893C27.8582,18.677467960880893,27.8582,27.844567960880894,27.8582,27.844567960880894C27.8582,27.844567960880894,27.8582,27.844567960880894,27.8582,27.844567960880894ZM10.7143,10.709367960880895C10.7143,10.709367960880895,0,14.279267960880894,0,14.279267960880894C0,14.279267960880894,0,2.1418279608808946,0,2.1418279608808946C4.61398e-7,0.9588739608808947,0.959416,-0.00007262371910532041,2.14289,-0.000032039119105320424C2.14289,-0.000032039119105320424,14.2857,-0.000032039119105320424,14.2857,-0.000032039119105320424C14.2857,-0.000032039119105320424,10.7143,10.709367960880895,10.7143,10.709367960880895C10.7143,10.709367960880895,10.7143,10.709367960880895,10.7143,10.709367960880895ZM30,14.279267960880894C30,14.279267960880894,19.2857,10.709367960880895,19.2857,10.709367960880895C19.2857,10.709367960880895,15.7143,-0.000032039119105320424,15.7143,-0.000032039119105320424C15.7143,-0.000032039119105320424,27.8572,-0.000032039119105320424,27.8572,-0.000032039119105320424C29.0407,-0.000032039119105320424,30.0001,0.9589789608808946,30,2.1419179608808947C30,2.1419179608808947,30,14.279267960880894,30,14.279267960880894C30,14.279267960880894,30,14.279267960880894,30,14.279267960880894ZM27.8582,11.308867960880894C27.8582,11.308867960880894,20.979,9.016837960880896,20.979,9.016837960880896C20.979,9.016837960880896,18.6859,2.1407679608808947,18.6859,2.1407679608808947C18.6859,2.1407679608808947,27.8572,2.1407679608808947,27.8572,2.1407679608808947C27.8575,2.1407679608808947,27.8577,2.1408779608808945,27.8579,2.1410679608808945C27.8581,2.1413679608808946,27.8582,2.141527960880895,27.8582,2.1418279608808946C27.8582,2.1418279608808946,27.8582,11.308867960880894,27.8582,11.308867960880894C27.8582,11.308867960880894,27.8582,11.308867960880894,27.8582,11.308867960880894ZM9.02107,9.016837960880896C9.02107,9.016837960880896,2.14189,11.308867960880894,2.14189,11.308867960880894C2.14189,11.308867960880894,2.14189,2.1418279608808946,2.14189,2.1418279608808946C2.1419,2.1415479608808945,2.142,2.1412879608808946,2.14218,2.1410679608808945C2.14237,2.1408879608808946,2.14262,2.140787960880895,2.14289,2.1407679608808947C2.14289,2.1407679608808947,11.3141,2.1407679608808947,11.3141,2.1407679608808947C11.3141,2.1407679608808947,9.02107,9.016837960880896,9.02107,9.016837960880896C9.02107,9.016837960880896,9.02107,9.016837960880896,9.02107,9.016837960880896Z" fill-rule="evenodd" fill="#FFFFFF" fill-opacity="1"/><g><path d="M15.000214484252929,8.567676544189453C15.000214484252929,8.567676544189453,16.73631448425293,13.257716544189453,16.73631448425293,13.257716544189453C16.73631448425293,13.257716544189453,21.428724484252932,14.993286544189452,21.428724484252932,14.993286544189452C21.428724484252932,14.993286544189452,16.73630448425293,16.728856544189455,16.73630448425293,16.728856544189455C16.73630448425293,16.728856544189455,15.00020448425293,21.419176544189455,15.00020448425293,21.419176544189455C15.00020448425293,21.419176544189455,13.263834484252929,16.728856544189455,13.263834484252929,16.728856544189455C13.263834484252929,16.728856544189455,8.57142448425293,14.993286544189452,8.57142448425293,14.993286544189452C8.57142448425293,14.993286544189452,13.26384448425293,13.257716544189453,13.26384448425293,13.257716544189453C13.26384448425293,13.257716544189453,15.000214484252929,8.567676544189453,15.000214484252929,8.567676544189453C15.000214484252929,8.567676544189453,15.000214484252929,8.567676544189453,15.000214484252929,8.567676544189453Z" fill="#FFFFFF" fill-opacity="1"/></g><g><path d="M27.85726446508789,27.309072494506836C27.85726446508789,27.309072494506836,27.85726446508789,27.844498494506837,27.85726446508789,27.844498494506837C27.85726446508789,27.844498494506837,27.32144546508789,27.844498494506837,27.32144546508789,27.844498494506837C27.61726246508789,27.844380494506836,27.85706346508789,27.604753494506834,27.85726446508789,27.309072494506836C27.85726446508789,27.309072494506836,27.85726446508789,27.309072494506836,27.85726446508789,27.309072494506836Z" fill="#FFFFFF" fill-opacity="1"/></g><g><path d="M27.85726446508789,2.141831159591675C27.85726446508789,2.141831159591675,27.32144546508789,2.141831159591675,27.32144546508789,2.141831159591675C27.61726246508789,2.141949223591675,27.85706346508789,2.3815751595916748,27.85726446508789,2.677257159591675C27.85726446508789,2.677257159591675,27.85726446508789,2.141831159591675,27.85726446508789,2.141831159591675C27.85726446508789,2.141831159591675,27.85726446508789,2.141831159591675,27.85726446508789,2.141831159591675Z" fill="#FFFFFF" fill-opacity="1"/></g><g transform="matrix(-1,0,0,-1,5.357232570648193,5.35450553894043)"><path d="M3.2144352853240967,3.212678769470215C3.2144352853240967,3.212678769470215,2.6786162853240967,3.212678769470215,2.6786162853240967,3.212678769470215C2.9744332853240967,3.212560769470215,3.2142342853240966,2.972933769470215,3.2144352853240967,2.677252769470215C3.2144352853240967,2.677252769470215,3.2144352853240967,3.212678769470215,3.2144352853240967,3.212678769470215C3.2144352853240967,3.212678769470215,3.2144352853240967,3.212678769470215,3.2144352853240967,3.212678769470215Z" fill="#FFFFFF" fill-opacity="1"/></g><g transform="matrix(-1,0,0,-1,5.357232570648193,55.688987731933594)"><path d="M3.2144352853240967,27.844493865966797C3.2144352853240967,27.844493865966797,2.6786162853240967,27.844493865966797,2.6786162853240967,27.844493865966797C2.9744332853240967,27.844611929966796,3.2142342853240966,28.0842378659668,3.2144352853240967,28.379919865966798C3.2144352853240967,28.379919865966798,3.2144352853240967,27.844493865966797,3.2144352853240967,27.844493865966797C3.2144352853240967,27.844493865966797,3.2144352853240967,27.844493865966797,3.2144352853240967,27.844493865966797Z" fill="#FFFFFF" fill-opacity="1"/></g></g></svg>
