<svg t="1598704925437" class="icon" viewBox="0 0 1024 1024" version="1.1" xmlns="http://www.w3.org/2000/svg" p-id="8766" width="200" height="200"><path d="M980.79827 694.105946c-21.144216-122.796973-109.844757-203.250162-109.844757-203.250162 12.647784-111.477622-33.792-131.26573-33.792-131.26573C827.392 14.668108 530.985514 20.67373 524.730811 20.839784 518.476108 20.67373 222.01427 14.668108 212.300108 359.590054c0 0-46.467459 19.788108-33.819676 131.26573 0 0-88.700541 80.453189-109.817081 203.250162 0 0-11.291676 207.484541 101.403676 25.40627 0 0 25.350919 69.161514 71.790703 131.26573 0 0-83.082378 28.256865-75.997405 101.625081 0 0-2.87827 81.836973 177.401081 76.218811 0 0 126.699243-9.852541 164.753297-63.515676l16.605405 0 0.276757 0 16.633081 0c38.026378 53.635459 164.725622 63.515676 164.725622 63.515676 180.224 5.618162 177.401081-76.218811 177.401081-76.218811 7.029622-73.368216-75.997405-101.625081-75.997405-101.625081 46.439784-62.104216 71.790703-131.26573 71.790703-131.26573C992.034595 901.590486 980.79827 694.105946 980.79827 694.105946z" p-id="8767" data-spm-anchor-id="a313x.7781069.0.i22" class="selected" fill="#50616d"></path></svg>